<svg width="101" height="101" viewBox="0 0 101 101" fill="none" xmlns="http://www.w3.org/2000/svg">
<path d="M51.6667 24.4167V16M51.6667 24.4167C49.4344 24.4167 47.2936 25.3034 45.7152 26.8819C44.1368 28.4603 43.25 30.6011 43.25 32.8333C43.25 35.0656 44.1368 37.2064 45.7152 38.7848C47.2936 40.3632 49.4344 41.25 51.6667 41.25M51.6667 24.4167C53.8989 24.4167 56.0397 25.3034 57.6181 26.8819C59.1966 28.4603 60.0833 30.6011 60.0833 32.8333C60.0833 35.0656 59.1966 37.2064 57.6181 38.7848C56.0397 40.3632 53.8989 41.25 51.6667 41.25M51.6667 41.25V83.3333M26.4167 74.9167C28.6489 74.9167 30.7897 74.0299 32.3681 72.4515C33.9466 70.873 34.8333 68.7322 34.8333 66.5C34.8333 64.2678 33.9466 62.1269 32.3681 60.5485C30.7897 58.9701 28.6489 58.0833 26.4167 58.0833M26.4167 74.9167C24.1844 74.9167 22.0436 74.0299 20.4652 72.4515C18.8868 70.873 18 68.7322 18 66.5C18 64.2678 18.8868 62.1269 20.4652 60.5485C22.0436 58.9701 24.1844 58.0833 26.4167 58.0833M26.4167 74.9167V83.3333M26.4167 58.0833V16M76.9167 74.9167C79.1489 74.9167 81.2897 74.0299 82.8681 72.4515C84.4466 70.873 85.3333 68.7322 85.3333 66.5C85.3333 64.2678 84.4466 62.1269 82.8681 60.5485C81.2897 58.9701 79.1489 58.0833 76.9167 58.0833M76.9167 74.9167C74.6844 74.9167 72.5436 74.0299 70.9652 72.4515C69.3868 70.873 68.5 68.7322 68.5 66.5C68.5 64.2678 69.3868 62.1269 70.9652 60.5485C72.5436 58.9701 74.6844 58.0833 76.9167 58.0833M76.9167 74.9167V83.3333M76.9167 58.0833V16" stroke="black" stroke-width="5" stroke-linecap="round" stroke-linejoin="round"/>
</svg>
