<svg width="113" height="113" viewBox="0 0 113 113" fill="none" xmlns="http://www.w3.org/2000/svg">
<path d="M14.125 47.0833H98.875H14.125ZM32.9583 70.625H37.6667H32.9583ZM56.5 70.625H61.2083H56.5ZM28.25 89.4583H84.75C88.4962 89.4583 92.0889 87.9701 94.7379 85.3212C97.3868 82.6722 98.875 79.0795 98.875 75.3333V37.6666C98.875 33.9204 97.3868 30.3277 94.7379 27.6787C92.0889 25.0298 88.4962 23.5416 84.75 23.5416H28.25C24.5038 23.5416 20.9111 25.0298 18.2621 27.6787C15.6132 30.3277 14.125 33.9204 14.125 37.6666V75.3333C14.125 79.0795 15.6132 82.6722 18.2621 85.3212C20.9111 87.9701 24.5038 89.4583 28.25 89.4583Z" stroke="white" stroke-width="5" stroke-linecap="round" stroke-linejoin="round"/>
</svg>
