<svg width="127" height="127" viewBox="0 0 127 127" fill="none" xmlns="http://www.w3.org/2000/svg">
<path d="M63.5 15.875L15.875 63.5H26.4583V105.833C26.4583 107.237 27.0158 108.583 28.0082 109.575C29.0006 110.567 30.3466 111.125 31.75 111.125H47.625C49.0284 111.125 50.3744 110.567 51.3668 109.575C52.3591 108.583 52.9167 107.237 52.9167 105.833V84.6667C52.9167 83.2632 53.4742 81.9173 54.4666 80.9249C55.4589 79.9325 56.8049 79.375 58.2083 79.375H68.7917C70.1951 79.375 71.5411 79.9325 72.5334 80.9249C73.5258 81.9173 74.0833 83.2632 74.0833 84.6667V105.833C74.0833 107.237 74.6408 108.583 75.6332 109.575C76.6256 110.567 77.9716 111.125 79.375 111.125H95.25C96.6534 111.125 97.9994 110.567 98.9918 109.575C99.9842 108.583 100.542 107.237 100.542 105.833V63.5H111.125L63.5 15.875Z" stroke="white" stroke-width="5" stroke-linecap="round" stroke-linejoin="round"/>
</svg>
