<svg width="44" height="22" viewBox="0 0 44 22" fill="none" xmlns="http://www.w3.org/2000/svg">
<path d="M0.72 21V1H3.52L3.72 4.12C4.41333 2.86667 5.36 1.97333 6.56 1.44C7.76 0.879998 9.05333 0.599998 10.44 0.599998C11.88 0.599998 13.1867 0.879998 14.36 1.44C15.5333 1.97333 16.4667 2.8 17.16 3.92C17.88 5.04 18.24 6.46667 18.24 8.2V21H15.04V9.32C15.04 7.10667 14.56 5.57333 13.6 4.72C12.6667 3.84 11.5067 3.4 10.12 3.4C9.16 3.4 8.2 3.62667 7.24 4.08C6.28 4.53333 5.48 5.26667 4.84 6.28C4.22667 7.29333 3.92 8.65333 3.92 10.36V21H0.72ZM33.7656 0.599998C35.659 0.599998 37.3256 1.01333 38.7656 1.84C40.2323 2.66667 41.379 3.86667 42.2056 5.44C43.0323 6.98667 43.4456 8.84 43.4456 11C43.4456 13.16 43.0323 15.0267 42.2056 16.6C41.379 18.1467 40.2323 19.3333 38.7656 20.16C37.3256 20.9867 35.659 21.4 33.7656 21.4C31.899 21.4 30.2323 20.9867 28.7656 20.16C27.299 19.3333 26.1523 18.1467 25.3256 16.6C24.499 15.0267 24.0856 13.16 24.0856 11C24.0856 8.84 24.499 6.98667 25.3256 5.44C26.1523 3.86667 27.299 2.66667 28.7656 1.84C30.2323 1.01333 31.899 0.599998 33.7656 0.599998ZM33.7656 3.36C31.739 3.36 30.1523 4.04 29.0056 5.4C27.859 6.76 27.2856 8.62667 27.2856 11C27.2856 13.3733 27.859 15.24 29.0056 16.6C30.1523 17.96 31.739 18.64 33.7656 18.64C35.7923 18.64 37.379 17.96 38.5256 16.6C39.6723 15.24 40.2456 13.3733 40.2456 11C40.2456 8.62667 39.6723 6.76 38.5256 5.4C37.379 4.04 35.7923 3.36 33.7656 3.36Z" fill="black"/>
</svg>
