<svg width="43" height="43" viewBox="0 0 43 43" fill="none" xmlns="http://www.w3.org/2000/svg">
<path fill-rule="evenodd" clip-rule="evenodd" d="M21.5 38.7C26.0617 38.7 30.4366 36.8879 33.6622 33.6622C36.8879 30.4366 38.7 26.0617 38.7 21.5C38.7 16.9383 36.8879 12.5634 33.6622 9.33775C30.4366 6.11213 26.0617 4.29999 21.5 4.29999C16.9383 4.29999 12.5634 6.11213 9.33775 9.33775C6.11213 12.5634 4.29999 16.9383 4.29999 21.5C4.29999 26.0617 6.11213 30.4366 9.33775 33.6622C12.5634 36.8879 16.9383 38.7 21.5 38.7V38.7ZM23.65 15.05C23.65 14.4798 23.4235 13.9329 23.0203 13.5297C22.6171 13.1265 22.0702 12.9 21.5 12.9C20.9298 12.9 20.3829 13.1265 19.9797 13.5297C19.5765 13.9329 19.35 14.4798 19.35 15.05V19.35H15.05C14.4798 19.35 13.9329 19.5765 13.5297 19.9797C13.1265 20.3829 12.9 20.9298 12.9 21.5C12.9 22.0702 13.1265 22.6171 13.5297 23.0203C13.9329 23.4235 14.4798 23.65 15.05 23.65H19.35V27.95C19.35 28.5202 19.5765 29.0671 19.9797 29.4703C20.3829 29.8735 20.9298 30.1 21.5 30.1C22.0702 30.1 22.6171 29.8735 23.0203 29.4703C23.4235 29.0671 23.65 28.5202 23.65 27.95V23.65H27.95C28.5202 23.65 29.0671 23.4235 29.4703 23.0203C29.8735 22.6171 30.1 22.0702 30.1 21.5C30.1 20.9298 29.8735 20.3829 29.4703 19.9797C29.0671 19.5765 28.5202 19.35 27.95 19.35H23.65V15.05Z" fill="black"/>
</svg>
