<svg width="75" height="75" viewBox="0 0 75 75" fill="none" xmlns="http://www.w3.org/2000/svg">
<path d="M31.6237 27.8175C32.205 27.4313 32.9212 27.0825 33.75 26.8163V33.1838C32.999 32.9484 32.2836 32.6115 31.6237 32.1825C30.2625 31.275 30 30.4275 30 30C30 29.5725 30.2625 28.725 31.6237 27.8175ZM41.25 48.1838V41.8163C42.075 42.0825 42.795 42.4313 43.3763 42.8175C44.7413 43.7288 45 44.5725 45 45C45 45.4275 44.7375 46.275 43.3763 47.1825C42.7164 47.6115 42.001 47.9484 41.25 48.1838Z" fill="black"/>
<path fill-rule="evenodd" clip-rule="evenodd" d="M37.5 67.5C45.4565 67.5 53.0871 64.3393 58.7132 58.7132C64.3393 53.0871 67.5 45.4565 67.5 37.5C67.5 29.5435 64.3393 21.9129 58.7132 16.2868C53.0871 10.6607 45.4565 7.5 37.5 7.5C29.5435 7.5 21.9129 10.6607 16.2868 16.2868C10.6607 21.9129 7.5 29.5435 7.5 37.5C7.5 45.4565 10.6607 53.0871 16.2868 58.7132C21.9129 64.3393 29.5435 67.5 37.5 67.5V67.5ZM41.25 18.75C41.25 17.7554 40.8549 16.8016 40.1516 16.0984C39.4484 15.3951 38.4946 15 37.5 15C36.5054 15 35.5516 15.3951 34.8484 16.0984C34.1451 16.8016 33.75 17.7554 33.75 18.75V19.095C31.51 19.4937 29.3728 20.3379 27.465 21.5775C24.7575 23.3775 22.5 26.2838 22.5 30C22.5 33.7125 24.7575 36.6188 27.465 38.4225C29.265 39.6225 31.4175 40.4662 33.75 40.905V48.1837C32.2837 47.7075 31.2 46.995 30.5887 46.2938C30.2715 45.9045 29.8793 45.5828 29.4354 45.348C28.9915 45.1132 28.505 44.9699 28.0047 44.9266C27.5044 44.8834 27.0004 44.9411 26.5228 45.0963C26.0452 45.2515 25.6037 45.501 25.2243 45.8301C24.845 46.1592 24.5356 46.5611 24.3146 47.012C24.0935 47.4629 23.9653 47.9537 23.9375 48.4551C23.9097 48.9565 23.9829 49.4584 24.1527 49.931C24.3226 50.4036 24.5856 50.8372 24.9262 51.2062C27.0337 53.64 30.225 55.2412 33.75 55.905V56.25C33.75 57.2446 34.1451 58.1984 34.8484 58.9016C35.5516 59.6049 36.5054 60 37.5 60C38.4946 60 39.4484 59.6049 40.1516 58.9016C40.8549 58.1984 41.25 57.2446 41.25 56.25V55.905C43.49 55.5063 45.6272 54.6621 47.535 53.4225C50.2425 51.6225 52.5 48.7162 52.5 45C52.5 41.2875 50.2425 38.3812 47.535 36.5775C45.6272 35.3379 43.49 34.4937 41.25 34.095V26.8163C42.7163 27.2925 43.8 28.005 44.4113 28.7063C44.7315 29.0862 45.124 29.3987 45.566 29.6256C46.008 29.8525 46.4907 29.9893 46.986 30.0281C47.4814 30.0669 47.9795 30.0068 48.4514 29.8514C48.9234 29.696 49.3597 29.4484 49.7351 29.1229C50.1106 28.7975 50.4176 28.4006 50.6383 27.9555C50.859 27.5104 50.9891 27.0258 51.0209 26.53C51.0528 26.0341 50.9858 25.5369 50.8238 25.0672C50.6619 24.5974 50.4082 24.1646 50.0775 23.7937C47.9663 21.36 44.7787 19.7588 41.25 19.095V18.75Z" fill="black"/>
</svg>
