<svg width="162" height="162" viewBox="0 0 162 162" fill="none" xmlns="http://www.w3.org/2000/svg">
<path d="M141.75 141.75L101.25 101.25L141.75 141.75ZM114.75 67.5C114.75 73.705 113.528 79.8492 111.153 85.5818C108.779 91.3144 105.298 96.5232 100.911 100.911C96.5232 105.298 91.3144 108.779 85.5818 111.153C79.8492 113.528 73.705 114.75 67.5 114.75C61.295 114.75 55.1508 113.528 49.4182 111.153C43.6856 108.779 38.4768 105.298 34.0892 100.911C29.7016 96.5232 26.2212 91.3144 23.8467 85.5818C21.4722 79.8492 20.25 73.705 20.25 67.5C20.25 54.9685 25.2281 42.9503 34.0892 34.0892C42.9503 25.2281 54.9685 20.25 67.5 20.25C80.0315 20.25 92.0497 25.2281 100.911 34.0892C109.772 42.9503 114.75 54.9685 114.75 67.5Z" stroke="black" stroke-width="10" stroke-linecap="round" stroke-linejoin="round"/>
</svg>
