<svg width="78" height="48" viewBox="0 0 78 48" fill="none" xmlns="http://www.w3.org/2000/svg">
<path fill-rule="evenodd" clip-rule="evenodd" d="M12.7032 18.4968C12.2533 18.0468 12.0005 17.4364 12.0005 16.8C12.0005 16.1636 12.2533 15.5533 12.7032 15.1032L22.3032 5.50322C22.7533 5.05329 23.3636 4.80054 24 4.80054C24.6364 4.80054 25.2467 5.05329 25.6968 5.50322L35.2968 15.1032C35.734 15.5559 35.9759 16.1621 35.9704 16.7914C35.965 17.4207 35.7126 18.0226 35.2676 18.4676C34.8226 18.9126 34.2206 19.165 33.5914 19.1704C32.9621 19.1759 32.3559 18.934 31.9032 18.4968L26.4 12.9936V40.8C26.4 41.4365 26.1471 42.047 25.6971 42.4971C25.247 42.9472 24.6365 43.2 24 43.2C23.3635 43.2 22.753 42.9472 22.303 42.4971C21.8529 42.047 21.6 41.4365 21.6 40.8V12.9936L16.0968 18.4968C15.6467 18.9468 15.0364 19.1995 14.4 19.1995C13.7636 19.1995 13.1533 18.9468 12.7032 18.4968V18.4968Z" fill="black"/>
<path fill-rule="evenodd" clip-rule="evenodd" d="M65.2968 29.5032C65.7467 29.9532 65.9995 30.5636 65.9995 31.2C65.9995 31.8364 65.7467 32.4467 65.2968 32.8968L55.6968 42.4968C55.2467 42.9467 54.6364 43.1995 54 43.1995C53.3636 43.1995 52.7533 42.9467 52.3032 42.4968L42.7032 32.8968C42.266 32.4441 42.0241 31.8379 42.0296 31.2086C42.0351 30.5793 42.2875 29.9774 42.7324 29.5324C43.1774 29.0874 43.7794 28.835 44.4086 28.8296C45.0379 28.8241 45.6442 29.066 46.0968 29.5032L51.6 35.0064V7.19998C51.6 6.56346 51.8529 5.95301 52.3029 5.50292C52.753 5.05283 53.3635 4.79998 54 4.79998C54.6365 4.79998 55.247 5.05283 55.6971 5.50292C56.1471 5.95301 56.4 6.56346 56.4 7.19998V35.0064L61.9032 29.5032C62.3533 29.0532 62.9636 28.8005 63.6 28.8005C64.2364 28.8005 64.8467 29.0532 65.2968 29.5032V29.5032Z" fill="black"/>
</svg>
