<svg width="63" height="63" viewBox="0 0 63 63" fill="none" xmlns="http://www.w3.org/2000/svg">
<path d="M28.5044 9.21993C29.4494 6.31878 33.5538 6.31878 34.4957 9.21993L37.8662 19.5897C38.0721 20.2213 38.4724 20.7715 39.0098 21.1619C39.5473 21.5523 40.1944 21.7627 40.8587 21.7632H51.764C54.8163 21.7632 56.0826 25.6692 53.6162 27.4647L44.7962 33.8718C44.2576 34.2625 43.8566 34.8137 43.6506 35.4464C43.4446 36.079 43.4443 36.7607 43.6496 37.3935L47.0201 47.7633C47.9651 50.6645 44.6418 53.0805 42.1691 51.285L33.3491 44.8779C32.8111 44.4873 32.1633 44.277 31.4984 44.277C30.8336 44.277 30.1858 44.4873 29.6478 44.8779L20.8278 51.285C18.3582 53.0805 15.0381 50.6645 15.98 47.7633L19.3505 37.3935C19.5558 36.7607 19.5554 36.079 19.3494 35.4464C19.1434 34.8137 18.7424 34.2625 18.2039 33.8718L9.38701 27.4679C6.92056 25.6724 8.19001 21.7664 11.2392 21.7664H22.1414C22.8062 21.7666 23.454 21.5564 23.9921 21.166C24.5302 20.7756 24.9309 20.2249 25.137 19.5929L28.5075 9.22308L28.5044 9.21993Z" fill="black"/>
</svg>
