<svg width="114" height="114" viewBox="0 0 114 114" fill="none" xmlns="http://www.w3.org/2000/svg">
<path d="M76 33.25C76 38.2891 73.9982 43.1218 70.435 46.685C66.8718 50.2482 62.0391 52.25 57 52.25C51.9609 52.25 47.1282 50.2482 43.565 46.685C40.0018 43.1218 38 38.2891 38 33.25C38 28.2109 40.0018 23.3782 43.565 19.815C47.1282 16.2518 51.9609 14.25 57 14.25C62.0391 14.25 66.8718 16.2518 70.435 19.815C73.9982 23.3782 76 28.2109 76 33.25V33.25ZM57 66.5C48.1816 66.5 39.7243 70.0031 33.4887 76.2387C27.2531 82.4743 23.75 90.9316 23.75 99.75H90.25C90.25 90.9316 86.7469 82.4743 80.5113 76.2387C74.2757 70.0031 65.8185 66.5 57 66.5V66.5Z" stroke="white" stroke-width="5" stroke-linecap="round" stroke-linejoin="round"/>
</svg>
