<svg width="63" height="30" viewBox="0 0 63 30" fill="none" xmlns="http://www.w3.org/2000/svg">
<path d="M20.16 1L10.76 24.36C9.98667 26.3067 9.10667 27.6667 8.12 28.44C7.16 29.2133 5.97333 29.6 4.56 29.6C3.65333 29.6 2.81333 29.4667 2.04 29.2C1.29333 28.96 0.626667 28.6267 0.04 28.2L0.92 25.4C1.45333 25.88 2.01333 26.2267 2.6 26.44C3.21333 26.68 3.81333 26.8 4.4 26.8C5.09333 26.8 5.74667 26.5867 6.36 26.16C6.97333 25.7333 7.53333 24.8667 8.04 23.56L9.08 20.96L7.08 16.2L0.72 1H4.36L9.36 14.04L10.6 17.6L12.04 13.64L16.72 1H20.16ZM32.705 21.4C30.8117 21.4 29.1183 20.9867 27.625 20.16C26.1583 19.3333 25.0117 18.1467 24.185 16.6C23.3583 15.0267 22.945 13.16 22.945 11C22.945 8.84 23.3583 6.98667 24.185 5.44C25.0117 3.86667 26.145 2.66667 27.585 1.84C29.025 1.01333 30.665 0.599998 32.505 0.599998C34.3717 0.599998 35.9583 0.999998 37.265 1.8C38.5983 2.6 39.6117 3.69333 40.305 5.08C40.9983 6.44 41.345 7.97333 41.345 9.68C41.345 10.1333 41.3317 10.5467 41.305 10.92C41.2783 11.2933 41.2383 11.6267 41.185 11.92H26.105C26.265 14.0267 26.9183 15.6667 28.065 16.84C29.2117 18.0133 30.7317 18.6 32.625 18.6C34.0917 18.6 35.2783 18.32 36.185 17.76C37.1183 17.2 37.865 16.44 38.425 15.48L40.945 16.96C40.1983 18.32 39.1183 19.4 37.705 20.2C36.3183 21 34.6517 21.4 32.705 21.4ZM32.425 3.4C30.745 3.4 29.3583 3.90667 28.265 4.92C27.1983 5.90667 26.5183 7.29333 26.225 9.08H38.145C38.065 7.26667 37.505 5.86667 36.465 4.88C35.425 3.89333 34.0783 3.4 32.425 3.4ZM54.6309 21.4C52.6843 21.4 50.8843 20.9867 49.2309 20.16C47.6043 19.3333 46.3509 18.16 45.4709 16.64L48.1909 14.68C48.7776 15.9067 49.6309 16.8667 50.7509 17.56C51.8976 18.2533 53.2709 18.6 54.8709 18.6C56.2843 18.6 57.3909 18.3333 58.1909 17.8C58.9909 17.24 59.3909 16.52 59.3909 15.64C59.3909 15.08 59.2043 14.5733 58.8309 14.12C58.4843 13.64 57.8043 13.2933 56.7909 13.08L51.9909 12.08C50.0443 11.68 48.6443 11.0133 47.7909 10.08C46.9643 9.14667 46.5509 7.98667 46.5509 6.6C46.5509 5.50667 46.8576 4.50667 47.4709 3.6C48.1109 2.69333 49.0043 1.97333 50.1509 1.44C51.3243 0.879998 52.6976 0.599998 54.2709 0.599998C56.2443 0.599998 57.9109 0.986665 59.2709 1.76C60.6309 2.53333 61.6443 3.62667 62.3109 5.04L59.6309 6.8C59.1776 5.62667 58.4443 4.77333 57.4309 4.24C56.4176 3.68 55.3643 3.4 54.2709 3.4C52.8309 3.4 51.7109 3.69333 50.9109 4.28C50.1109 4.86667 49.7109 5.6 49.7109 6.48C49.7109 7.06667 49.9109 7.61333 50.3109 8.12C50.7109 8.6 51.4576 8.94667 52.5509 9.16L57.5509 10.2C59.4176 10.5733 60.7243 11.1867 61.4709 12.04C62.2176 12.8933 62.5909 13.9333 62.5909 15.16C62.5909 17.0533 61.8576 18.5733 60.3909 19.72C58.9243 20.84 57.0043 21.4 54.6309 21.4Z" fill="black"/>
</svg>
